<svg id="Layer_1" enable-background="new 0 0 512 512" height="512" viewBox="0 0 512 512" width="512" xmlns="http://www.w3.org/2000/svg"><path d="m450.805 397.459c-6.852-6.856-14.567-12.535-22.898-16.945 50.021-26.972 84.093-79.866 84.093-140.58 0-8.284-6.716-15-15-15h-36.438c2.082-5.315 3.238-11.09 3.238-17.134v-80.333c0-8.284-6.716-15-15-15h-48.2c-25.504 0-48.217 12.12-62.726 30.888-16.537-48.006-43.136-78.697-59.096-94.657l-12.172-12.171c-5.857-5.857-15.353-5.857-21.211 0l-12.172 12.171c-15.96 15.96-42.559 46.651-59.096 94.657-14.509-18.768-37.223-30.888-62.726-30.888h-48.201c-8.284 0-15 6.716-15 15v80.333c0 6.044 1.156 11.819 3.238 17.134h-36.438c-8.284 0-15 6.731-15 15.016 0 60.703 34.071 113.593 84.091 140.565-8.33 4.409-16.044 10.087-22.894 16.942l-56.803 56.803c-4.29 4.29-5.573 10.741-3.252 16.347 2.322 5.605 7.791 9.26 13.858 9.26h127.392c25.464 0 49.404-9.916 67.41-27.923l46.198-46.198 46.197 46.197c18.006 18.007 41.946 27.923 67.41 27.923h127.393c6.067 0 11.536-3.654 13.858-9.26 2.321-5.605 1.038-12.057-3.252-16.347zm-99.472-205.725c0-27.166 22.101-49.267 49.267-49.267h33.2v65.333c0 9.447-7.686 17.134-17.133 17.134h-65.334zm-273.133-49.267h33.2c27.166 0 49.267 22.101 49.267 49.267v33.2h-65.334c-9.447 0-17.133-7.687-17.133-17.134zm110.39 288.264c-12.34 12.34-28.746 19.136-46.197 19.136h-91.18l31.2-31.2c12.332-12.338 28.737-19.133 46.194-19.133h91.18zm52.41-61.198h-81.416c-66.381 0-121.264-50.173-128.721-114.6h144.804c36.024 0 65.333 29.309 65.333 65.333zm15-100.676c-7.657-11.915-27.942-36.892-65.333-42.76v-2.23c0-62.287 26.256-116.441 63.768-153.956l1.565-1.565 1.564 1.564c37.486 37.488 63.768 91.636 63.768 153.956v2.23c-37.36 5.864-57.653 30.809-65.332 42.761zm15 51.41c0-36.024 29.309-65.333 65.333-65.333h144.805c-7.451 64.42-62.338 114.6-128.722 114.6h-81.416zm98.607 129.599c-17.451 0-33.857-6.796-46.197-19.136l-31.197-31.197h91.18c17.457 0 33.862 6.795 46.197 19.136l31.197 31.197z"/></svg>