<svg id="Layer_1" enable-background="new 0 0 512 512" height="512" viewBox="0 0 512 512" width="512" xmlns="http://www.w3.org/2000/svg"><path d="m447.733 183.7v-8.034c0-8.284-6.716-15-15-15h-8.033c-56.997 0-103.367 46.37-103.367 103.367v1.821l-50.333 50.333v-157.894c53.76-3.596 96.4-48.472 96.4-103.127v-8.033c0-8.284-6.716-15-15-15h-8.034c-28.657 0-54.625 11.725-73.366 30.627v-47.76c0-8.284-6.716-15-15-15s-15 6.716-15 15v176.293c-18.741-18.901-44.709-30.627-73.366-30.627h-8.034c-8.284 0-15 6.716-15 15v8.034c0 54.655 42.64 99.531 96.4 103.127v65.568.01 60.182l-50.333-50.333v-1.821c0-56.996-46.37-103.366-103.367-103.366h-8.033c-8.284 0-15 6.716-15 15v8.033c0 37.395 19.96 70.215 49.786 88.367-29.826 18.152-49.786 50.972-49.786 88.367v8.033c0 8.284 6.716 15 15 15h8.033c48.345 0 89.039-33.364 100.281-78.273l53.419 53.419v41.987c0 8.284 6.716 15 15 15s15-6.716 15-15v-138.387l53.419-53.419c11.242 44.91 51.936 78.273 100.281 78.273h8.033c8.284 0 15-6.716 15-15v-8.034c0-37.394-19.96-70.214-49.786-88.366 29.826-18.152 49.786-50.972 49.786-88.367zm-110.696-121.203c-3.45 34.613-31.061 62.223-65.674 65.673 3.45-34.613 31.061-62.224 65.674-65.673zm-162.074 128.533c34.613 3.45 62.224 31.061 65.674 65.674-34.614-3.451-62.224-31.061-65.674-65.674zm-80.333 258.473c3.45-34.613 31.061-62.223 65.674-65.673-3.45 34.613-31.061 62.223-65.674 65.673zm0-162.073c34.613 3.45 62.224 31.06 65.674 65.673-34.614-3.45-62.224-31.06-65.674-65.673zm322.74 65.674c-34.613-3.45-62.224-31.06-65.674-65.673 34.614 3.449 62.224 31.059 65.674 65.673zm-65.674-96.4c3.45-34.613 31.061-62.224 65.674-65.674-3.45 34.613-31.06 62.223-65.674 65.674z"/></svg>