<svg id="Layer_1" enable-background="new 0 0 512 512" height="512" viewBox="0 0 512 512" width="512" xmlns="http://www.w3.org/2000/svg"><g><path d="m462.825 364.348c-8.865-14.363-26.121-19.958-42.711-14.555-8.824-18.351-22.145-34.114-38.995-45.976-17.473-12.301-37.627-19.575-58.797-21.321v-76.098c12.162 3.869 24.464 5.815 36.598 5.815 16.357 0 32.405-3.518 47.374-10.557.048-.023.097-.046.145-.069 30.144-14.77 51.723-42.093 60.761-76.937 1.25-4.819-1.236-9.823-5.832-11.739-15.405-6.423-31.333-9.714-47.039-9.84 14.999-27.164 11.325-62.452-11.056-85.616-11.526-11.925-27.326-18.1-44.467-17.4-16.183.664-31.805 7.302-43.975 18.677 0 0-1.954 1.823-2.512 2.337-.559-.514-2.5-2.325-2.5-2.325-12.183-11.389-27.804-18.026-43.987-18.69-17.145-.699-32.941 5.475-44.473 17.406-22.351 23.163-26.02 58.451-11.037 85.612-15.701.127-31.632 3.417-47.048 9.837-4.599 1.914-7.087 6.92-5.836 11.741 9.038 34.843 30.617 62.166 60.761 76.937.049.024.099.048.148.071 14.983 7.039 31.035 10.555 47.392 10.555 12.13 0 24.426-1.945 36.577-5.811v76.106c-41.376 3.466-78.189 28.243-96.916 65.509-13.406 1.453-27.273 5.457-41.124 13.433-2.293 1.323-4.35 2.645-6.165 3.811-6.956 4.47-11.22 7.192-23.35 7.285-3.958-9.646-13.451-16.46-24.511-16.46h-39.853c-14.603 0-26.483 11.874-26.483 26.469v92.379c0 14.595 11.88 26.469 26.483 26.469h39.852c13.973 0 25.445-10.874 26.41-24.598 16.451.25 27.256 1.505 49.499 8.032 22.979 6.781 45.994 13.433 69.003 20.108 13.222 3.834 24.333 7.057 35.915 7.057 13.082 0 26.764-4.115 44.749-16.106 4.596-3.065 5.837-9.274 2.771-13.868-3.065-4.595-9.276-5.833-13.873-2.77-26.169 17.449-37.241 14.237-63.988 6.48-22.984-6.667-45.974-13.312-68.928-20.086-23.896-7.012-35.755-8.53-55.074-8.836v-64.301c16.695-.477 24.573-5.531 32.196-10.43 1.706-1.096 3.47-2.229 5.341-3.309 23.877-13.75 49.621-15.008 86.075-4.209l38.895 11.539c8.933 2.643 14.092 12.013 11.512 20.883-.004.016-.009.032-.014.048-2.628 8.893-12.026 14.024-20.962 11.439l-55.595-16.129c-5.308-1.542-10.855 1.512-12.395 6.816s1.513 10.851 6.819 12.39l55.602 16.131c17.989 5.203 36.837-3.944 44.143-20.665l94.698-46.881c7.546-3.745 17.785-3.33 22.758 4.728 4.463 7.203 1.999 16.795-5.72 22.302l-42.405 30.16c-4.501 3.202-5.555 9.445-2.351 13.945 1.951 2.742 5.031 4.203 8.159 4.203 2.006 0 4.032-.602 5.791-1.853l42.416-30.168c16.429-11.721 21.209-32.838 11.129-49.107zm-346.099 110.584c0 3.507-2.966 6.47-6.477 6.47h-39.852c-3.571 0-6.477-2.902-6.477-6.47v-92.379c0-3.567 2.905-6.47 6.477-6.47h39.852c3.511 0 6.477 2.963 6.477 6.47zm328.512-346.693c-8.614 24.949-25.252 44.412-47.533 55.353-20.692 9.708-44.023 11.178-66.988 4.455l65.813-63.476c15.821-2.898 32.453-1.639 48.708 3.668zm-218.308 55.352c-22.281-10.942-38.916-30.401-47.53-55.35 16.266-5.305 32.9-6.567 48.706-3.67l65.816 63.479c-22.948 6.721-46.28 5.25-66.992-4.459zm8.708-79.545c-19.254-20.088-19.215-52.665.113-72.695 15.248-15.776 42.345-14.879 60.415 2.011 0 0 10.075 9.402 16.152 9.402 6.076 0 16.164-9.414 16.164-9.414 18.057-16.879 45.153-17.776 60.401-2.001 19.357 20.035 19.396 52.609.117 72.694l-76.683 73.96zm94.742 289.65c-3.016-12.379-12.377-22.898-25.455-26.767l-38.891-11.538c-11.272-3.339-23.976-6.433-37.528-7.57 18.146-28.2 49.594-45.748 83.813-45.748 38.202 0 73.162 22.247 89.656 56.18z"/><path d="m362.418 452.581-.057.028c-4.941 2.47-6.916 8.462-4.445 13.402 1.751 3.5 5.292 5.518 8.966 5.518 1.51 0 3.043-.341 4.483-1.06 4.941-2.47 6.944-8.476 4.474-13.416-2.471-4.939-8.477-6.942-13.421-4.472z"/></g></svg>